<?xml version="1.0" encoding="utf-8" standalone="no"?>
<!DOCTYPE svg PUBLIC "-//W3C//DTD SVG 1.1//EN"
  "http://www.w3.org/Graphics/SVG/1.1/DTD/svg11.dtd">
<svg xmlns:xlink="http://www.w3.org/1999/xlink" width="365.780168pt" height="199.83096pt" viewBox="0 0 365.780168 199.83096" xmlns="http://www.w3.org/2000/svg" version="1.1">
 <metadata>
  <rdf:RDF xmlns:dc="http://purl.org/dc/elements/1.1/" xmlns:cc="http://creativecommons.org/ns#" xmlns:rdf="http://www.w3.org/1999/02/22-rdf-syntax-ns#">
   <cc:Work>
    <dc:type rdf:resource="http://purl.org/dc/dcmitype/StillImage"/>
    <dc:format>image/svg+xml</dc:format>
    <dc:creator>
     <cc:Agent>
      <dc:title>Matplotlib v3.11.2, https://matplotlib.org/</dc:title>
     </cc:Agent>
    </dc:creator>
   </cc:Work>
  </rdf:RDF>
 </metadata>
 <defs>
  <style type="text/css">*{stroke-linejoin: round; stroke-linecap: butt}</style>
 </defs>
 <g id="figure_1">
  <g id="patch_1">
   <path d="M 0 199.83096 
L 365.780168 199.83096 
L 365.780168 -0 
L 0 -0 
L 0 199.83096 
z
" style="fill: none; opacity: 0"/>
  </g>
  <g id="axes_1">
   <g id="patch_2">
    <path d="M 13.100168 180.21 
L 153.772437 180.21 
L 153.772437 24.978 
L 13.100168 24.978 
L 13.100168 180.21 
z
" style="fill: none; opacity: 0"/>
   </g>
   <g id="patch_3">
    <path d="M 153.631765 180.21 
Q 153.702101 180.21 152.87801 180.21 
" style="fill: none; stroke: #222222; stroke-width: 0.8; stroke-linecap: round"/>
    <path d="M 148.07801 177.81 
L 152.87801 180.21 
L 148.07801 182.61 
z
" style="fill: #222222; stroke: #222222; stroke-width: 0.8; stroke-linecap: round"/>
   </g>
   <g id="patch_4">
    <path d="M 13.100168 25.133232 
Q 13.100168 25.055616 13.100168 25.872427 
" style="fill: none; stroke: #222222; stroke-width: 0.8; stroke-linecap: round"/>
    <path d="M 10.700168 30.672427 
L 13.100168 25.872427 
L 15.500168 30.672427 
z
" style="fill: #222222; stroke: #222222; stroke-width: 0.8; stroke-linecap: round"/>
   </g>
   <g id="matplotlib.axis_1">
    <g id="xtick_1">
     <g id="line2d_1"/>
    </g>
    <g id="xtick_2">
     <g id="line2d_2"/>
    </g>
    <g id="xtick_3">
     <g id="line2d_3"/>
    </g>
    <g id="xtick_4">
     <g id="line2d_4"/>
    </g>
    <g id="xtick_5">
     <g id="line2d_5"/>
    </g>
   </g>
   <g id="matplotlib.axis_2">
    <g id="ytick_1">
     <g id="line2d_6"/>
    </g>
    <g id="ytick_2">
     <g id="line2d_7"/>
    </g>
    <g id="ytick_3">
     <g id="line2d_8"/>
    </g>
    <g id="ytick_4">
     <g id="line2d_9"/>
    </g>
    <g id="ytick_5">
     <g id="line2d_10"/>
    </g>
    <g id="ytick_6">
     <g id="line2d_11"/>
    </g>
    <g id="ytick_7">
     <g id="line2d_12"/>
    </g>
   </g>
   <g id="QuadContourSet_1">
    <path d="M 17.497924 24.978 
L 18.254351 47.779078 
L 19.052203 65.556189 
L 19.874924 79.468712 
L 20.821883 91.835398 
L 21.85577 102.269789 
L 22.820121 109.998968 
L 23.888846 116.955229 
L 25.029106 123.004325 
L 26.211847 128.162539 
L 27.493848 132.800046 
L 28.911654 137.051095 
L 30.297474 140.529225 
L 31.750783 143.620897 
L 33.448288 146.673574 
L 34.987291 149.031322 
L 36.745766 151.350076 
L 38.710277 153.56395 
L 40.815073 155.587777 
L 42.919869 157.325354 
L 45.394448 159.079255 
L 48.181858 160.75779 
L 50.988252 162.198889 
L 54.496244 163.725268 
L 58.355036 165.130378 
L 62.59252 166.421975 
L 67.475817 167.659758 
L 73.088606 168.833849 
L 79.402992 169.917651 
L 87.120576 170.990318 
L 95.539759 171.931539 
L 106.063737 172.868382 
L 117.990912 173.703421 
L 132.022882 174.4709 
L 148.861247 175.181885 
L 153.772437 175.358143 
L 153.772437 175.358143 
" clip-path="url(#p7ec11e6936)" style="fill: none; stroke: #377eb8; stroke-width: 1.8"/>
    <path d="M 22.991664 24.978 
L 24.116214 40.822817 
L 25.299797 54.34888 
L 26.492131 65.556189 
L 27.778433 75.604122 
L 29.077153 84.106219 
L 30.47441 91.835398 
L 31.958664 98.791659 
L 33.448288 104.753148 
L 35.089905 110.385427 
L 36.654116 115.022935 
L 38.458197 119.660442 
L 40.186948 123.525032 
L 42.168673 127.389621 
L 43.975757 130.481293 
L 46.077062 133.649918 
L 48.360228 136.664636 
L 50.695701 139.369848 
L 53.093047 141.817882 
L 55.548642 144.038948 
L 58.413909 146.326109 
L 61.51223 148.494429 
L 64.669423 150.436105 
L 68.177416 152.33241 
L 72.036208 154.157704 
L 76.245799 155.894457 
L 80.808908 157.533419 
L 86.068178 159.167552 
L 91.680967 160.670642 
L 98.215635 162.170926 
L 105.362138 163.567698 
L 113.231753 164.876139 
L 122.551302 166.181171 
L 132.724481 167.37407 
L 144.300857 168.506533 
L 153.772437 169.294408 
L 153.772437 169.294408 
" clip-path="url(#p7ec11e6936)" style="fill: none; stroke: #377eb8; stroke-width: 1.8"/>
    <path d="M 30.684387 24.978 
L 32.155111 36.958227 
L 33.652095 47.392619 
L 35.202285 56.710273 
L 36.907685 65.556189 
L 38.536841 72.898909 
L 40.299985 79.855171 
L 42.085887 86.038514 
L 43.986963 91.835398 
L 46.001331 97.245823 
L 47.949347 101.883331 
L 50.142515 106.520838 
L 52.391449 110.738955 
L 54.496244 114.27124 
L 56.951839 117.963548 
L 59.407434 121.264424 
L 61.919867 124.297949 
L 64.777408 127.389621 
L 67.566916 130.094834 
L 70.674731 132.800046 
L 73.790204 135.233667 
L 77.298197 137.691289 
L 80.806189 139.894249 
L 84.677712 142.075061 
L 88.874573 144.186962 
L 93.434963 146.231934 
L 98.346153 148.189498 
L 103.608142 150.050994 
L 109.22093 151.812132 
L 115.535317 153.562572 
L 122.304794 155.214665 
L 129.918087 156.843411 
L 138.337269 158.414158 
L 147.808849 159.946638 
L 153.772437 160.805521 
L 153.772437 160.805521 
" clip-path="url(#p7ec11e6936)" style="fill: none; stroke: #377eb8; stroke-width: 1.8"/>
    <path d="M 40.575462 24.978 
L 42.398994 34.639474 
L 44.304095 43.528029 
L 46.17453 51.257208 
L 48.181858 58.636372 
L 50.299199 65.556189 
L 52.419752 71.739533 
L 54.639828 77.536417 
L 56.951839 82.950138 
L 59.407434 88.107572 
L 61.863029 92.745646 
L 64.508135 97.245823 
L 67.125018 101.264598 
L 69.931412 105.162999 
L 72.859048 108.839592 
L 75.920414 112.317722 
L 79.052193 115.541539 
L 82.215083 118.501065 
L 85.860531 121.592737 
L 89.576171 124.44062 
L 93.434963 127.11944 
L 97.644554 129.762949 
L 102.204945 132.344805 
L 106.882715 134.732341 
L 112.027324 137.097304 
L 117.640112 139.412038 
L 123.6037 141.613731 
L 129.665181 143.620897 
L 136.583273 145.670573 
L 143.950057 147.615086 
L 152.018441 149.508224 
L 153.772437 149.891035 
L 153.772437 149.891035 
" clip-path="url(#p7ec11e6936)" style="fill: none; stroke: #377eb8; stroke-width: 1.8"/>
    <path d="M 52.664378 24.978 
L 54.847044 33.094545 
L 57.161852 40.822817 
L 59.476228 47.779078 
L 61.896949 54.34888 
L 64.418176 60.532223 
L 67.030404 66.329107 
L 69.580613 71.471219 
L 72.387007 76.618449 
L 75.256634 81.401006 
L 78.050989 85.652055 
L 81.156989 89.967546 
L 84.314182 93.968291 
L 87.473873 97.632282 
L 90.979368 101.349158 
L 94.487361 104.748246 
L 98.23093 108.066674 
L 102.204945 111.284164 
L 106.414536 114.393523 
L 110.79033 117.341688 
L 115.184518 120.047881 
L 120.095707 122.809295 
L 125.357696 125.499922 
L 130.970485 128.105098 
L 136.602498 130.481293 
L 142.89766 132.892989 
L 149.562846 135.204067 
L 153.772437 136.550823 
L 153.772437 136.550823 
" clip-path="url(#p7ec11e6936)" style="fill: none; stroke: #377eb8; stroke-width: 1.8"/>
   </g>
   <g id="line2d_13">
    <path d="M 118.60437 180.21 
L 13.100168 76.722 
" clip-path="url(#p7ec11e6936)" style="fill: none; stroke: #984ea3; stroke-width: 1.5; stroke-linecap: square"/>
   </g>
   <g id="line2d_14">
    <path d="M 65.852269 180.21 
L 65.852269 128.466 
" clip-path="url(#p7ec11e6936)" style="fill: none; stroke-dasharray: 0.8,1.32; stroke-dashoffset: 0; stroke: #e41a1c; stroke-width: 0.8"/>
   </g>
   <g id="line2d_15">
    <path d="M 13.100168 128.466 
L 65.852269 128.466 
" clip-path="url(#p7ec11e6936)" style="fill: none; stroke-dasharray: 0.8,1.32; stroke-dashoffset: 0; stroke: #e41a1c; stroke-width: 0.8"/>
   </g>
   <g id="patch_5">
    <path d="M 13.100168 180.21 
L 13.100168 24.978 
" style="fill: none; stroke: #222222; stroke-width: 0.8; stroke-linejoin: miter; stroke-linecap: square"/>
   </g>
   <g id="patch_6">
    <path d="M 13.100168 180.21 
L 153.772437 180.21 
" style="fill: none; stroke: #222222; stroke-width: 0.8; stroke-linejoin: miter; stroke-linecap: square"/>
   </g>
   <g id="text_1">
    <!-- $x$ -->
    <g style="fill: #222222" transform="translate(161.772437 183.325) scale(0.14 -0.14)">
     <defs>
      <path id="TeXGyrePagella-Italic-59" d="M 58 6 
C 154 -45 256 -70 333 -70 
C 544 -70 794 115 992 416 
L 1478 1165 
L 1549 723 
C 1638 179 1779 -70 2010 -70 
C 2150 -70 2355 38 2560 224 
L 2874 506 
L 2816 627 
C 2586 435 2426 339 2323 339 
C 2227 339 2144 403 2080 531 
C 2022 653 1952 890 1920 1075 
L 1805 1722 
L 2029 2035 
C 2330 2451 2502 2598 2701 2598 
C 2803 2598 2880 2547 2912 2451 
L 3002 2477 
L 3098 3021 
C 3021 3066 2963 3085 2906 3085 
C 2650 3085 2394 2854 1997 2266 
L 1760 1914 
L 1722 2221 
C 1645 2854 1472 3085 1094 3085 
C 928 3085 787 3034 730 2950 
L 358 2419 
L 467 2355 
C 659 2573 787 2662 909 2662 
C 1120 2662 1261 2400 1370 1773 
L 1440 1376 
L 1184 979 
C 909 550 691 346 512 346 
C 416 346 346 371 333 403 
L 262 582 
L 134 563 
C 134 435 122 352 83 147 
C 70 70 64 51 58 6 
z
" transform="scale(0.015625)"/>
     </defs>
     <use xlink:href="#TeXGyrePagella-Italic-59" transform="translate(0 0.796875)"/>
    </g>
   </g>
   <g id="text_2">
    <!-- $y$ -->
    <g style="fill: #222222" transform="translate(9.600168 13.044) scale(0.14 -0.14)">
     <defs>
      <path id="TeXGyrePagella-Italic-5a" d="M -51 -1267 
C -51 -1542 186 -1766 474 -1766 
C 1152 -1766 1856 -973 2234 211 
L 3136 3027 
L 3066 3085 
C 2880 3014 2733 2976 2592 2963 
L 2368 2118 
C 2291 1818 2067 1350 1856 1037 
C 1632 710 1318 429 1178 429 
C 1037 429 1050 736 1056 819 
L 1152 2061 
C 1165 2259 1178 2502 1178 2682 
C 1178 2970 1133 3085 1024 3085 
C 941 3085 851 3040 544 2829 
L 19 2470 
L 90 2355 
L 410 2547 
C 442 2573 525 2624 570 2624 
C 736 2624 710 2298 704 2195 
L 595 640 
L 589 384 
C 582 115 704 -70 864 -70 
C 1101 -70 1638 474 2118 1197 
L 1805 102 
C 1478 -1030 1158 -1498 710 -1498 
C 486 -1498 314 -1325 314 -1101 
C 314 -1069 320 -1018 326 -960 
L 262 -934 
L -45 -1152 
C -51 -1197 -51 -1235 -51 -1267 
z
" transform="scale(0.015625)"/>
     </defs>
     <use xlink:href="#TeXGyrePagella-Italic-5a" transform="translate(0 0.796875)"/>
    </g>
   </g>
   <g id="text_3">
    <!-- $0$ -->
    <g style="fill: #222222" transform="translate(2.88 193.57896) scale(0.12 -0.12)">
     <defs>
      <path id="TeXGyrePagella-Regular-11" d="M 186 2074 
C 186 1325 320 678 544 365 
C 768 51 1126 -128 1523 -128 
C 2490 -128 2976 704 2976 2342 
C 2976 3744 2560 4410 1683 4410 
C 691 4410 186 3622 186 2074 
z
M 723 2304 
C 723 3654 960 4186 1568 4186 
C 2189 4186 2438 3558 2438 2022 
C 2438 659 2195 96 1606 96 
C 986 96 723 742 723 2304 
z
" transform="scale(0.015625)"/>
     </defs>
     <use xlink:href="#TeXGyrePagella-Regular-11" transform="translate(0 0.09375)"/>
    </g>
   </g>
   <g id="line2d_16">
    <defs>
     <path id="m48ea7a2d53" d="M 0 2 
C 0.530406 2 1.03916 1.789267 1.414214 1.414214 
C 1.789267 1.03916 2 0.530406 2 0 
C 2 -0.530406 1.789267 -1.03916 1.414214 -1.414214 
C 1.03916 -1.789267 0.530406 -2 0 -2 
C -0.530406 -2 -1.03916 -1.789267 -1.414214 -1.414214 
C -1.789267 -1.03916 -2 -0.530406 -2 0 
C -2 0.530406 -1.789267 1.03916 -1.414214 1.414214 
C -1.03916 1.789267 -0.530406 2 0 2 
z
" style="stroke: #e41a1c"/>
    </defs>
    <g>
     <use xlink:href="#m48ea7a2d53" x="65.852269" y="128.466" style="fill: #e41a1c; stroke: #e41a1c"/>
    </g>
   </g>
   <g id="text_4">
    <!-- $x^*$ -->
    <g style="fill: #e41a1c" transform="translate(75.852269 132.309) scale(0.14 -0.14)">
     <defs>
      <path id="TeXGyrePagella-Regular-b" d="M 205 2874 
L 448 2541 
L 531 2534 
L 1146 3162 
L 1274 2291 
L 1344 2246 
L 1734 2374 
L 1766 2451 
L 1357 3232 
L 2227 3085 
L 2291 3136 
L 2291 3546 
L 2227 3603 
L 1357 3456 
L 1766 4237 
L 1734 4314 
L 1344 4442 
L 1274 4397 
L 1146 3526 
L 531 4154 
L 448 4147 
L 205 3814 
L 224 3738 
L 1011 3341 
L 224 2950 
L 205 2874 
z
" transform="scale(0.015625)"/>
     </defs>
     <use xlink:href="#TeXGyrePagella-Italic-59" transform="translate(0 0.673438)"/>
     <use xlink:href="#TeXGyrePagella-Regular-b" transform="translate(64.828533 34.415625) scale(0.7)"/>
    </g>
   </g>
  </g>
  <g id="axes_2">
   <g id="patch_7">
    <path d="M 207.227899 180.21 
L 347.900168 180.21 
L 347.900168 24.978 
L 207.227899 24.978 
L 207.227899 180.21 
z
" style="fill: none; opacity: 0"/>
   </g>
   <g id="patch_8">
    <path d="M 347.759496 180.21 
Q 347.829832 180.21 347.005741 180.21 
" style="fill: none; stroke: #222222; stroke-width: 0.8; stroke-linecap: round"/>
    <path d="M 342.205741 177.81 
L 347.005741 180.21 
L 342.205741 182.61 
z
" style="fill: #222222; stroke: #222222; stroke-width: 0.8; stroke-linecap: round"/>
   </g>
   <g id="patch_9">
    <path d="M 207.227899 25.133232 
Q 207.227899 25.055616 207.227899 25.872427 
" style="fill: none; stroke: #222222; stroke-width: 0.8; stroke-linecap: round"/>
    <path d="M 204.827899 30.672427 
L 207.227899 25.872427 
L 209.627899 30.672427 
z
" style="fill: #222222; stroke: #222222; stroke-width: 0.8; stroke-linecap: round"/>
   </g>
   <g id="matplotlib.axis_3">
    <g id="xtick_6">
     <g id="line2d_17"/>
    </g>
    <g id="xtick_7">
     <g id="line2d_18"/>
    </g>
    <g id="xtick_8">
     <g id="line2d_19"/>
    </g>
    <g id="xtick_9">
     <g id="line2d_20"/>
    </g>
    <g id="xtick_10">
     <g id="line2d_21"/>
    </g>
   </g>
   <g id="matplotlib.axis_4">
    <g id="ytick_8">
     <g id="line2d_22"/>
    </g>
    <g id="ytick_9">
     <g id="line2d_23"/>
    </g>
    <g id="ytick_10">
     <g id="line2d_24"/>
    </g>
    <g id="ytick_11">
     <g id="line2d_25"/>
    </g>
    <g id="ytick_12">
     <g id="line2d_26"/>
    </g>
    <g id="ytick_13">
     <g id="line2d_27"/>
    </g>
    <g id="ytick_14">
     <g id="line2d_28"/>
    </g>
   </g>
   <g id="QuadContourSet_2">
    <path d="M 224.812118 24.978 
L 226.282842 36.958227 
L 227.779827 47.392619 
L 229.330016 56.710273 
L 231.035416 65.556189 
L 232.664572 72.898909 
L 234.427716 79.855171 
L 236.213618 86.038514 
L 238.114694 91.835398 
L 240.129062 97.245823 
L 242.077078 101.883331 
L 244.270246 106.520838 
L 246.51918 110.738955 
L 248.623975 114.27124 
L 251.07957 117.963548 
L 253.535165 121.264424 
L 256.047598 124.297949 
L 258.905139 127.389621 
L 261.694647 130.094834 
L 264.802462 132.800046 
L 267.917935 135.233667 
L 271.425928 137.691289 
L 274.933921 139.894249 
L 278.805443 142.075061 
L 283.002304 144.186962 
L 287.562694 146.231934 
L 292.473884 148.189498 
L 297.735873 150.050994 
L 303.348661 151.812132 
L 309.663048 153.562572 
L 316.432525 155.214665 
L 324.045818 156.843411 
L 332.465 158.414158 
L 341.936581 159.946638 
L 347.900168 160.805521 
L 347.900168 160.805521 
" clip-path="url(#p9966df9a99)" style="fill: none; stroke: #377eb8; stroke-width: 1.8"/>
   </g>
   <g id="QuadContourSet_3">
    <path d="M 211.625655 24.978 
L 212.382082 47.779078 
L 213.179934 65.556189 
L 214.002655 79.468712 
L 214.949614 91.835398 
L 215.983501 102.269789 
L 216.947852 109.998968 
L 218.016577 116.955229 
L 219.156837 123.004325 
L 220.339578 128.162539 
L 221.62158 132.800046 
L 223.039385 137.051095 
L 224.425205 140.529225 
L 225.878514 143.620897 
L 227.576019 146.673574 
L 229.115022 149.031322 
L 230.873497 151.350076 
L 232.838008 153.56395 
L 234.942804 155.587777 
L 237.0476 157.325354 
L 239.522179 159.079255 
L 242.309589 160.75779 
L 245.115983 162.198889 
L 248.623975 163.725268 
L 252.482767 165.130378 
L 256.720251 166.421975 
L 261.603548 167.659758 
L 267.216337 168.833849 
L 273.530723 169.917651 
L 281.248307 170.990318 
L 289.66749 171.931539 
L 300.191468 172.868382 
L 312.118643 173.703421 
L 326.150614 174.4709 
L 342.988978 175.181885 
L 347.900168 175.358143 
L 347.900168 175.358143 
" clip-path="url(#p9966df9a99)" style="fill: none; stroke: #377eb8; stroke-opacity: 0.45"/>
    <path d="M 217.119395 24.978 
L 218.243945 40.822817 
L 219.427529 54.34888 
L 220.619862 65.556189 
L 221.906164 75.604122 
L 223.204884 84.106219 
L 224.602141 91.835398 
L 226.086395 98.791659 
L 227.576019 104.753148 
L 229.217636 110.385427 
L 230.781847 115.022935 
L 232.585928 119.660442 
L 234.314679 123.525032 
L 236.296404 127.389621 
L 238.103488 130.481293 
L 240.204793 133.649918 
L 242.487959 136.664636 
L 244.823432 139.369848 
L 247.220778 141.817882 
L 249.676373 144.038948 
L 252.541641 146.326109 
L 255.639961 148.494429 
L 258.797154 150.436105 
L 262.305147 152.33241 
L 266.163939 154.157704 
L 270.37353 155.894457 
L 274.936639 157.533419 
L 280.19591 159.167552 
L 285.808698 160.670642 
L 292.343366 162.170926 
L 299.489869 163.567698 
L 307.359484 164.876139 
L 316.679033 166.181171 
L 326.852212 167.37407 
L 338.428588 168.506533 
L 347.900168 169.294408 
L 347.900168 169.294408 
" clip-path="url(#p9966df9a99)" style="fill: none; stroke: #377eb8; stroke-opacity: 0.45"/>
    <path d="M 234.703194 24.978 
L 236.526725 34.639474 
L 238.431827 43.528029 
L 240.302262 51.257208 
L 242.309589 58.636372 
L 244.42693 65.556189 
L 246.547483 71.739533 
L 248.767559 77.536417 
L 251.07957 82.950138 
L 253.535165 88.107572 
L 255.99076 92.745646 
L 258.635866 97.245823 
L 261.252749 101.264598 
L 264.059143 105.162999 
L 266.986779 108.839592 
L 270.048145 112.317722 
L 273.179924 115.541539 
L 276.342814 118.501065 
L 279.988262 121.592737 
L 283.703902 124.44062 
L 287.562694 127.11944 
L 291.772285 129.762949 
L 296.332676 132.344805 
L 301.010446 134.732341 
L 306.155055 137.097304 
L 311.767844 139.412038 
L 317.731431 141.613731 
L 323.792912 143.620897 
L 330.711004 145.670573 
L 338.077789 147.615086 
L 346.146172 149.508224 
L 347.900168 149.891035 
L 347.900168 149.891035 
" clip-path="url(#p9966df9a99)" style="fill: none; stroke: #377eb8; stroke-opacity: 0.45"/>
    <path d="M 246.792109 24.978 
L 248.974775 33.094545 
L 251.289583 40.822817 
L 253.603959 47.779078 
L 256.02468 54.34888 
L 258.545907 60.532223 
L 261.158135 66.329107 
L 263.708344 71.471219 
L 266.514738 76.618449 
L 269.384365 81.401006 
L 272.17872 85.652055 
L 275.28472 89.967546 
L 278.441913 93.968291 
L 281.601604 97.632282 
L 285.107099 101.349158 
L 288.615092 104.748246 
L 292.358661 108.066674 
L 296.332676 111.284164 
L 300.542267 114.393523 
L 304.918061 117.341688 
L 309.312249 120.047881 
L 314.223438 122.809295 
L 319.485427 125.499922 
L 325.098216 128.105098 
L 330.730229 130.481293 
L 337.025391 132.892989 
L 343.690577 135.204067 
L 347.900168 136.550823 
L 347.900168 136.550823 
" clip-path="url(#p9966df9a99)" style="fill: none; stroke: #377eb8; stroke-opacity: 0.45"/>
   </g>
   <g id="line2d_29">
    <path d="M 312.732101 180.21 
L 207.227899 76.722 
" clip-path="url(#p9966df9a99)" style="fill: none; stroke: #984ea3; stroke-width: 1.5; stroke-linecap: square"/>
   </g>
   <g id="line2d_30">
    <path d="M 259.98 180.21 
L 259.98 128.466 
" clip-path="url(#p9966df9a99)" style="fill: none; stroke-dasharray: 0.8,1.32; stroke-dashoffset: 0; stroke: #e41a1c; stroke-width: 0.8"/>
   </g>
   <g id="line2d_31">
    <path d="M 207.227899 128.466 
L 259.98 128.466 
" clip-path="url(#p9966df9a99)" style="fill: none; stroke-dasharray: 0.8,1.32; stroke-dashoffset: 0; stroke: #e41a1c; stroke-width: 0.8"/>
   </g>
   <g id="patch_10">
    <path d="M 207.227899 180.21 
L 207.227899 24.978 
" style="fill: none; stroke: #222222; stroke-width: 0.8; stroke-linejoin: miter; stroke-linecap: square"/>
   </g>
   <g id="patch_11">
    <path d="M 207.227899 180.21 
L 347.900168 180.21 
" style="fill: none; stroke: #222222; stroke-width: 0.8; stroke-linejoin: miter; stroke-linecap: square"/>
   </g>
   <g id="text_5">
    <!-- $x$ -->
    <g style="fill: #222222" transform="translate(355.900168 183.325) scale(0.14 -0.14)">
     <use xlink:href="#TeXGyrePagella-Italic-59" transform="translate(0 0.796875)"/>
    </g>
   </g>
   <g id="text_6">
    <!-- $y$ -->
    <g style="fill: #222222" transform="translate(203.727899 13.044) scale(0.14 -0.14)">
     <use xlink:href="#TeXGyrePagella-Italic-5a" transform="translate(0 0.796875)"/>
    </g>
   </g>
   <g id="text_7">
    <!-- $0$ -->
    <g style="fill: #222222" transform="translate(197.007731 193.57896) scale(0.12 -0.12)">
     <use xlink:href="#TeXGyrePagella-Regular-11" transform="translate(0 0.09375)"/>
    </g>
   </g>
   <g id="text_8">
    <!-- $u_{1}$ -->
    <g style="fill: #377eb8" transform="translate(347.265358 177.196048) rotate(-357.87022) scale(0.09 -0.09)">
     <defs>
      <path id="TeXGyrePagella-Italic-56" d="M 205 2483 
L 250 2355 
L 454 2490 
C 640 2611 704 2637 762 2637 
C 826 2637 870 2579 870 2509 
C 870 2477 864 2426 858 2394 
L 454 493 
C 442 429 429 288 429 186 
C 429 45 525 -70 653 -70 
C 1056 -70 1830 646 2368 1530 
L 2131 621 
C 2086 461 2061 301 2061 198 
C 2061 38 2131 -70 2253 -70 
C 2419 -70 2656 83 3277 544 
L 3213 659 
L 3046 550 
C 2886 448 2733 378 2656 378 
C 2605 378 2573 422 2573 486 
C 2573 570 2592 666 2611 742 
L 3149 3027 
L 3104 3085 
L 2669 2976 
L 2605 2650 
C 2509 2163 2355 1734 2170 1440 
C 1792 851 1280 378 1018 378 
C 960 378 934 435 934 544 
C 934 640 947 710 979 877 
L 1344 2611 
C 1363 2714 1376 2803 1376 2886 
C 1376 3008 1325 3085 1235 3085 
C 1101 3085 864 2957 384 2611 
L 205 2483 
z
" transform="scale(0.015625)"/>
      <path id="TeXGyrePagella-Regular-12" d="M 384 3827 
L 429 3552 
L 493 3552 
L 1318 3923 
L 1338 3930 
C 1376 3930 1389 3872 1389 3718 
L 1389 614 
C 1389 282 1318 211 973 192 
L 614 173 
L 614 -19 
C 966 -6 1318 0 1670 0 
C 2003 0 2342 -6 2675 -19 
L 2675 173 
L 2342 192 
C 1990 211 1926 282 1926 614 
L 1926 4410 
L 1837 4442 
C 1421 4224 966 4032 384 3827 
z
" transform="scale(0.015625)"/>
     </defs>
     <use xlink:href="#TeXGyrePagella-Italic-56" transform="translate(0 0.796875)"/>
     <use xlink:href="#TeXGyrePagella-Regular-12" transform="translate(55.599945 -13.664062) scale(0.7)"/>
    </g>
   </g>
   <g id="text_9">
    <!-- $u_{2}$ -->
    <g style="fill: #377eb8" transform="translate(347.174105 170.924362) rotate(-355.254326) scale(0.09 -0.09)">
     <defs>
      <path id="TeXGyrePagella-Regular-13" d="M 102 -19 
C 576 -6 1056 0 1530 0 
C 2016 0 2509 -6 2995 -19 
C 2982 115 2982 179 2982 269 
C 2982 352 2982 416 2995 557 
L 781 493 
L 1946 1728 
C 2566 2387 2758 2739 2758 3219 
C 2758 3955 2259 4410 1446 4410 
C 986 4410 672 4282 358 3962 
L 250 3091 
L 435 3091 
L 518 3386 
C 621 3757 851 3917 1280 3917 
C 1830 3917 2182 3571 2182 3027 
C 2182 2547 1914 2074 1190 1306 
L 102 147 
L 102 -19 
z
" transform="scale(0.015625)"/>
     </defs>
     <use xlink:href="#TeXGyrePagella-Italic-56" transform="translate(0 0.796875)"/>
     <use xlink:href="#TeXGyrePagella-Regular-13" transform="translate(55.599945 -13.664062) scale(0.7)"/>
    </g>
   </g>
   <g id="text_10">
    <!-- $u_{3}$ -->
    <g style="fill: #377eb8" transform="translate(347.046552 162.136477) rotate(-351.579916) scale(0.09 -0.09)">
     <defs>
      <path id="TeXGyrePagella-Regular-14" d="M 96 979 
C 230 589 282 358 320 38 
C 659 -77 941 -128 1178 -128 
C 1690 -128 2278 160 2630 589 
C 2848 851 2957 1133 2957 1434 
C 2957 1741 2829 2010 2598 2170 
C 2438 2285 2291 2336 1971 2394 
C 2483 2790 2675 3085 2675 3462 
C 2675 4032 2202 4410 1491 4410 
C 1056 4410 768 4288 461 3981 
L 275 3187 
L 474 3187 
L 589 3546 
C 659 3763 1062 3981 1395 3981 
C 1811 3981 2150 3642 2150 3238 
C 2150 2758 1773 2355 1318 2355 
C 1267 2355 1018 2374 1018 2374 
L 941 2035 
L 986 1997 
C 1229 2106 1350 2138 1523 2138 
C 2054 2138 2362 1798 2362 1216 
C 2362 563 1971 134 1376 134 
C 1082 134 819 230 627 410 
C 474 550 390 698 269 1043 
L 96 979 
z
" transform="scale(0.015625)"/>
     </defs>
     <use xlink:href="#TeXGyrePagella-Italic-56" transform="translate(0 0.796875)"/>
     <use xlink:href="#TeXGyrePagella-Regular-14" transform="translate(55.599945 -13.664062) scale(0.7)"/>
    </g>
   </g>
   <g id="text_11">
    <!-- $u_{4}$ -->
    <g style="fill: #377eb8" transform="translate(346.88945 150.82635) rotate(-347.00403) scale(0.09 -0.09)">
     <defs>
      <path id="TeXGyrePagella-Regular-15" d="M 13 1306 
L 83 1158 
L 1792 1158 
L 1792 678 
C 1792 294 1722 205 1408 192 
L 1011 173 
L 1011 -19 
C 1357 -6 1696 0 2042 0 
C 2368 0 2694 -6 3021 -19 
L 3021 173 
L 2714 192 
C 2400 211 2330 294 2330 678 
L 2330 1158 
C 2707 1158 2842 1152 3021 1133 
L 3021 1587 
C 3021 1587 2707 1568 2502 1568 
L 2330 1568 
L 2330 2458 
C 2330 3597 2342 4147 2374 4410 
L 2298 4442 
L 1824 4269 
L 13 1306 
z
M 416 1568 
L 1792 3821 
L 1792 1568 
L 416 1568 
z
" transform="scale(0.015625)"/>
     </defs>
     <use xlink:href="#TeXGyrePagella-Italic-56" transform="translate(0 0.796875)"/>
     <use xlink:href="#TeXGyrePagella-Regular-15" transform="translate(55.599945 -13.664062) scale(0.7)"/>
    </g>
   </g>
   <g id="text_12">
    <!-- $u_{5}$ -->
    <g style="fill: #377eb8" transform="translate(346.801558 137.019425) rotate(-341.645441) scale(0.09 -0.09)">
     <defs>
      <path id="TeXGyrePagella-Regular-16" d="M 83 877 
C 230 512 307 307 397 26 
C 576 -70 832 -128 1107 -128 
C 1536 -128 1990 58 2342 365 
C 2733 710 2938 1146 2938 1619 
C 2938 2342 2419 2854 1690 2854 
C 1382 2854 1152 2771 755 2534 
L 813 3872 
L 2765 3840 
L 2797 3872 
C 2784 3987 2784 4026 2784 4122 
C 2784 4224 2784 4262 2797 4378 
C 2797 4378 2765 4410 2765 4410 
C 2765 4410 2086 4378 1651 4378 
C 1216 4378 538 4410 538 4410 
C 538 4410 506 4378 506 4378 
L 518 3501 
C 518 2938 499 2342 480 2061 
L 608 2022 
C 909 2323 1082 2413 1395 2413 
C 2010 2413 2394 1978 2394 1286 
C 2394 576 1984 160 1286 160 
C 941 160 621 275 531 442 
L 237 966 
L 83 877 
z
" transform="scale(0.015625)"/>
     </defs>
     <use xlink:href="#TeXGyrePagella-Italic-56" transform="translate(0 0.796875)"/>
     <use xlink:href="#TeXGyrePagella-Regular-16" transform="translate(55.599945 -13.664062) scale(0.7)"/>
    </g>
   </g>
   <g id="line2d_32">
    <g>
     <use xlink:href="#m48ea7a2d53" x="259.98" y="128.466" style="fill: #e41a1c; stroke: #e41a1c"/>
    </g>
   </g>
   <g id="text_13">
    <!-- $x^*$ -->
    <g style="fill: #e41a1c" transform="translate(269.98 132.309) scale(0.14 -0.14)">
     <use xlink:href="#TeXGyrePagella-Italic-59" transform="translate(0 0.673438)"/>
     <use xlink:href="#TeXGyrePagella-Regular-b" transform="translate(64.828533 34.415625) scale(0.7)"/>
    </g>
   </g>
  </g>
 </g>
 <defs>
  <clipPath id="p7ec11e6936">
   <rect x="13.100168" y="24.978" width="140.672269" height="155.232"/>
  </clipPath>
  <clipPath id="p9966df9a99">
   <rect x="207.227899" y="24.978" width="140.672269" height="155.232"/>
  </clipPath>
 </defs>
</svg>
